<svg xmlns="http://www.w3.org/2000/svg" viewBox="0 0 512 512" fill="none" role="img" aria-labelledby="title"><title id="title">Símbolo Zuvvi</title><defs><linearGradient id="b" x1="96" y1="84" x2="398" y2="430" gradientUnits="userSpaceOnUse"><stop stop-color="#3F42F7"/><stop offset=".55" stop-color="#1C1ABD"/><stop offset="1" stop-color="#11106E"/></linearGradient><linearGradient id="v" x1="44" y1="210" x2="220" y2="385" gradientUnits="userSpaceOnUse"><stop stop-color="#EDFF36"/><stop offset="1" stop-color="#C6FF3D"/></linearGradient></defs><rect x="120" y="98" width="282" height="78" rx="39" fill="#0C0B69"/><path d="m358 154 38 53-230 186H104Z" fill="#0C0B69"/><rect x="102" y="354" width="300" height="84" rx="42" fill="#0C0B69"/><rect x="116" y="88" width="282" height="78" rx="39" fill="url(#b)"/><path d="m354 145 38 53-230 186H100Z" fill="#17159A"/><rect x="98" y="344" width="300" height="84" rx="42" fill="url(#b)"/><path d="M39 230h184l-117 94c-34 28-15 83 29 83h89" stroke="url(#v)" stroke-width="31" stroke-linecap="round" stroke-linejoin="round"/><path d="M17 230h40M30 270h105" stroke="#D9FF13" stroke-width="20" stroke-linecap="round"/><path d="M339 58c-46 0-83 36-83 81 0 60 83 126 83 126s83-66 83-126c0-45-37-81-83-81Zm0 48a33 33 0 1 1 0 66 33 33 0 0 1 0-66Z" fill="#D9FF13"/><circle cx="339" cy="139" r="33" fill="#130F36"/></svg>
